Encoded by Ratzz








General
Complete name                    :Batman Beyond Return of the Joker 2000 1080p BluRay x264 Ratzz.mp4


Format                           : MP-4
Format profile                   : Base Media
Codec ID                         : isom
File size                        : 849 MiB
Duration                         : 1h 16mn
Overall bit rate                 : 1 546 Kbps
Encoded date                     : UTC 2012-03-01 16:51:50
Tagged date                      : UTC 2012-03-01 16:51:50

Video
ID                               : 1
Format                           : AVC
Format/Info                      : Advanced Video Codec
Format profile                   : High@L4.0
Format settings, CABAC           : Yes
Format settings, ReFrames        : 3 frames
Format settings, GOP             : M=4, N=58
Codec ID                         : avc1
Codec ID/Info                    : Advanced Video Coding
Duration                         : 1h 16mn
Bit rate mode                    : Variable
Bit rate                         : 1 481 Kbps
Maximum bit rate                 : 25.0 Mbps
Width                            : 1 440 pixels
Height                           : 1 080 pixels
Display aspect ratio             : 4:3
Frame rate mode                  : Constant
Frame rate                       : 23.976 fps
Color space                      : YUV
Chroma subsampling               : 4:2:0
Bit depth                        : 8 bits
Scan type                        : Progressive
Bits/(Pixel*Frame)               : 0.040
Stream size                      : 813 MiB (96%)
Title                            : Batman Beyond Return of the Joker 2000 1080p BluRay x264 Ratzz

Encoded date                     : UTC 2012-03-01 16:51:50
Tagged date                      : UTC 2012-03-01 16:52:17

Audio
ID                               : 2
Format                           : AAC
Format/Info                      : Advanced Audio Codec
Format profile                   : HE-AAC / LC
Codec ID                         : 40
Duration                         : 1h 16mn
Bit rate mode                    : Variable
Bit rate                         : 64.0 Kbps
Maximum bit rate                 : 71.4 Kbps
Channel(s)                       : 2 channels
Channel positions                : Front: L R
Sampling rate                    : 48.0 KHz / 24.0 KHz
Compression mode                 : Lossy
Stream size                      : 35.1 MiB (4%)
Language                         : English
Encoded date                     : UTC 2012-03-01 16:52:12
Tagged date                      : UTC 2012-03-01 16:52:17

Subtitle                         : eng .srt file included


pls seed after download and provide feedback.
thank you.